# xmcd CD database file
#
# Track frame offsets:
#	150
#	21925
#	49617
#	75092
#
# Disc length: 1280 seconds
#
# Revision: 0
# Processed by: cddbd v1.5.2PL0 Copyright (c) Steve Scherf et al.
# Submitted via: CDex 2.15
#
DISCID=1e04fe04
DTITLE=Cleveland Watkiss - Blessing in Disguise
DYEAR=1990
DGENRE=Jazz
TTITLE0=Be thankful for what you got
TTITLE1=Blessing in Disguise
TTITLE2=Don't waste my Time (Ma Fi Asiko Mi S'ofo)
TTITLE3=Memories
EXTD=YEAR: 1990
EXTT0=
EXTT1=
EXTT2=
EXTT3=
PLAYORDER=
